<?xml version="1.0" encoding="utf-8"?>
<!-- Generator: Adobe Illustrator 25.0.1, SVG Export Plug-In . SVG Version: 6.00 Build 0)  -->
<svg version="1.0" id="Layer_1" xmlns="http://www.w3.org/2000/svg" xmlns:xlink="http://www.w3.org/1999/xlink" x="0px" y="0px"
	 viewBox="0 0 256 184" style="enable-background:new 0 0 256 184;" xml:space="preserve">
<style type="text/css">
	.st0{fill:#26317E;}
	.st1{fill:#FFFFFF;}
	.st2{fill:#EB1B2C;}
	.st3{fill:none;}
</style>
<path class="st0" d="M212,52.2c-0.1-0.2-0.3-0.3-0.5-0.4h-0.1l-11.8-4.8c-0.3-0.1-0.6-0.1-0.8,0.1c-6.7,5.9-17.9,8.8-34.2,8.8
	c-13.7,0-29.6-2-45-3.8c-15.8-2-32.1-4-45.8-3.8c-21.6,0.3-34.2,12.2-37.2,35.5c-2.2,16.7,2,33.1,3.5,39.2c0.3,1.1,0.5,2.1,0.6,2.4
	c0,0.2,0,0.4,0.1,0.6c0.1,0.2,0.3,0.3,0.5,0.3l11.3,3.2c0.1,0,0.1,0,0.2,0c0.2,0,0.4-0.1,0.5-0.2c7.4-6.5,20-9.5,39.6-9.5
	c12.8,0,27.2,1.3,41.1,2.5c13.6,1.2,27.6,2.4,39.7,2.4c2.3,0,4.5,0,6.6-0.1c22.2-1,33.7-12,36.1-34.7C218,77.1,216.4,64.2,212,52.2z
	"/>
<path class="st1" d="M209.8,54c0,0,16.6,49-12.5,64.1C168,133.4,81.9,99,43.5,124c0.1-1.2-16.4-51.9,12.3-69
	C82.2,39.3,165.1,74.7,209.8,54z"/>
<path class="st2" d="M74.6,85.8c2.3-1.5,3.7-4.1,3.6-6.9c0-6.1-3.9-9.1-11.5-9.1H50.2v35.4h17c5.8,0,12.6-2.8,12.6-10.6
	C79.8,90.4,77.9,87.3,74.6,85.8z M66.2,97.8H59V77h6.2c3.8,0,4.3,1.6,4.3,3.1c0,2.2-1.3,3.3-3.8,3.3h-2.1l-3,6.6h5.7
	c3.1,0,4.6,1.3,4.6,4.1C70.9,95.7,70.4,97.8,66.2,97.8L66.2,97.8z"/>
<path class="st2" d="M91.8,69.5H83v35.4h8.9L91.8,69.5z"/>
<path class="st2" d="M115.5,89.6l-4.4-20.1H97.1v35.4h8.9V83.2l5.2,21.6h8.8l5.2-21.8v21.8h8.9V69.4H120L115.5,89.6z"/>
<path class="st2" d="M163.8,86c2.3-1.5,3.7-4.1,3.6-6.9c0-6.1-3.8-9.2-11.4-9.2h-16.5l-0.1,35.4h17c5.8,0,12.6-2.7,12.6-10.5
	C169,90.6,167.2,87.6,163.8,86z M155.4,98h-7.1V77.2h6.2c3.8,0,4.3,1.6,4.3,3.2c0,2.2-1.3,3.3-3.8,3.3h-2.1l-3,6.6h5.7
	c3.1,0,4.6,1.3,4.6,4.1C160.1,95.9,159.6,98.1,155.4,98z"/>
<path class="st2" d="M188.2,69.5c-9.8,0-17.8,8-17.7,17.8c0,9.8,8,17.8,17.8,17.7c9.8,0,17.7-7.9,17.7-17.7
	C206,77.5,198.1,69.5,188.2,69.5C188.2,69.5,188.2,69.5,188.2,69.5z M188.1,96.6c-5.2-0.2-9.2-4.5-9-9.7c0.2-4.9,4.1-8.9,9-9
	c5.2,0.2,9.2,4.5,9,9.7C197,92.5,193.1,96.4,188.1,96.6z"/>
<path class="st0" d="M220,117.5c0,2.5-2,4.6-4.6,4.6s-4.6-2-4.6-4.6c0-2.5,2-4.6,4.6-4.6c0,0,0,0,0,0C218,113,220,115,220,117.5
	C220,117.5,220,117.5,220,117.5z M211.6,117.5c0,2.1,1.7,3.9,3.9,3.9c2.1,0,3.9-1.7,3.9-3.9c0-2.1-1.7-3.9-3.9-3.9
	C213.3,113.6,211.6,115.3,211.6,117.5C211.5,117.5,211.5,117.5,211.6,117.5L211.6,117.5z M214.6,120.1h-0.9v-5.2h2.1
	c0.7-0.1,1.4,0.4,1.5,1.2c0,0,0,0.1,0,0.1c0,0.6-0.5,1.1-1.1,1.2l0,0c0.6,0.1,0.9,0.3,0.9,1.3c0,0.5,0.1,0.9,0.2,1.4h-0.8
	c-0.2-0.6-0.2-1.2-0.2-1.8c-0.1-0.4-0.4-0.6-0.8-0.6c0,0,0,0,0,0h-0.9L214.6,120.1z M214.6,117.1h1.1c0.4,0,0.8-0.3,0.8-0.7
	c0,0,0-0.1,0-0.1c0-0.4-0.3-0.8-0.7-0.8c0,0-0.1,0-0.1,0h-1.1V117.1z"/>
<path class="st2" d="M216.1,137.1L216.1,137.1C216.2,137.1,216.3,137.1,216.1,137.1z"/>
<path class="st2" d="M216.1,137.2L216.1,137.2L216.1,137.2z"/>
<rect x="29" y="45" class="st3" width="198" height="94"/>
</svg>
